<svg version="1.1" xmlns="http://www.w3.org/2000/svg" viewBox="0 0 24 24">
	<path fill="#FFFFFF" d="M15.84,4.869h-2.033l2.618-2.618h-0.862l-2.618,2.618h-1.868l2.618-2.618h-0.862l-2.618,2.618H8.159
		c-1.584,0-2.88,1.296-2.88,2.88v11.244h1.087v2.07h1.92v-2.07h7.427v2.07h1.92v-2.07h1.087V7.749
		C18.72,6.165,17.424,4.869,15.84,4.869 M9.206,5.599h5.588v1.313H9.206V5.599z M9.375,18.003H6.623v-1.186h2.752V18.003z
		 M17.375,18.003h-2.751v-1.186h2.751V18.003z M17.376,14.108h-2.224l-0.273,1.059H9.12l-0.273-1.059H6.624V8.736
		c0-0.634,0.518-1.152,1.151-1.152h8.448c0.634,0,1.152,0.519,1.152,1.152V14.108z"/>
</svg>
