<svg version="1.1" xmlns="http://www.w3.org/2000/svg" viewBox="0 0 24 24">
	<path fill="currentColor" d="M17.468,15.565c-0.857,0.446-1.405,0.446-2.262,0c-0.857-0.445-1.406-0.445-2.264,0
		c-0.856,0.446-1.405,0.446-2.263,0c-0.857-0.445-1.406-0.445-2.263,0c-0.857,0.446-1.406,0.446-2.263,0
		c-0.857-0.445-1.406-0.445-2.264,0c-0.377,0.206-0.856,0.343-1.131,0.343v1.372c0.274,0,0.754-0.138,1.131-0.343
		c0.857-0.446,1.406-0.446,2.264,0c0.856,0.445,1.405,0.445,2.263,0c0.856-0.446,1.405-0.446,2.263,0
		c0.857,0.445,1.406,0.445,2.263,0c0.857-0.446,1.406-0.446,2.264,0c0.856,0.445,1.404,0.445,2.262,0
		c0.857-0.446,1.406-0.446,2.264,0c0.377,0.205,0.856,0.343,1.131,0.343v-1.372c-0.274,0-0.754-0.137-1.131-0.343
		C18.874,15.12,18.325,15.12,17.468,15.565"/>
	<path fill="currentColor" d="M6.154,14.194c0.856,0.445,1.405,0.445,2.263,0s1.405-0.445,2.263,0s1.406,0.445,2.263,0
		c0.857-0.445,1.406-0.445,2.264,0c0.856,0.445,1.405,0.445,2.262,0c0.687-0.377,1.2-0.445,1.817-0.206l1.954-3.188h-4.217V7.68
		c0-0.891-0.72-1.611-1.611-1.611H9.548c-0.891,0-1.611,0.721-1.611,1.611v3.12H3.309v3.635c0.171-0.034,0.411-0.138,0.582-0.24
		C4.748,13.749,5.297,13.749,6.154,14.194 M13.011,7.132h2.4c0.309,0,0.549,0.239,0.549,0.548v3.12h-2.949V7.132z M9,7.68
		c0.034-0.309,0.274-0.548,0.548-0.548h2.4V10.8H9V7.68z"/>
</svg>
