<svg version="1.1" xmlns="http://www.w3.org/2000/svg" viewBox="0 0 24 24">
	<path fill="currentColor" d="M13.541,14.555c0-1.896-5.543-1.385-5.543-5.343c0-2.244,2.132-3.22,4.192-3.22
		c0.996,0,1.712,0.118,2.305,0.287l0.636-1.755C14.17,4.119,13.107,3.898,12,3.898c-4.478,0-8.101,3.623-8.101,8.101
		c0,2.662,1.286,5.014,3.269,6.492l1.216-3.332c1.04,0.367,1.825,0.536,3.111,0.536C12.899,15.695,13.541,15.267,13.541,14.555"/>
	<path fill="currentColor" d="M16.417,5.21l-1.29,3.552c0,0-1.669-0.508-2.854-0.508c-1.174,0-1.534,0.443-1.534,0.941
		c0,1.548,5.643,1.548,5.643,5.26c0,2.556-2.445,3.546-4.854,3.546c-1.068,0-1.877-0.115-2.547-0.297l-0.564,1.552
		c1.082,0.536,2.294,0.845,3.583,0.845c4.476,0,8.1-3.628,8.1-8.106C20.099,9.155,18.632,6.659,16.417,5.21"/>
</svg>
