<svg version="1.1" xmlns="http://www.w3.org/2000/svg" xmlns:xlink="http://www.w3.org/1999/xlink" viewBox="0 0 24 24" enable-background="new 0 0 24 24" xml:space="preserve">
	<path fill="currentColor" d="M15.84,4.869H8.16c-1.584,0-2.88,1.296-2.88,2.88v11.245h1.087v2.07h1.92v-2.07h7.427v2.07h1.92v-2.07
		h1.087V7.749C18.721,6.165,17.425,4.869,15.84,4.869 M9.207,5.599h5.588v1.313H9.207V5.599z M9.377,18.003H6.625v-1.186h2.752
		V18.003z M17.376,18.003h-2.751v-1.186h2.751V18.003z M17.377,14.108h-2.223l-0.274,1.059H9.121l-0.273-1.059H6.625V8.736
		c0-0.634,0.518-1.152,1.15-1.152h8.449c0.634,0,1.152,0.519,1.152,1.152V14.108z"/>
</svg>
